<?xml version="1.0" standalone="no"?>
<!DOCTYPE svg PUBLIC "-//W3C//DTD SVG 20010904//EN"
 "http://www.w3.org/TR/2001/REC-SVG-20010904/DTD/svg10.dtd">
<svg version="1.0" xmlns="http://www.w3.org/2000/svg"
 width="1350.000000pt" height="1350.000000pt" viewBox="0 0 1350.000000 1350.000000"
 preserveAspectRatio="xMidYMid meet">
<metadata>
Created by potrace 1.10, written by Peter Selinger 2001-2011
</metadata>
<g transform="translate(0.000000,1350.000000) scale(0.100000,-0.100000)"
fill="#ffb61a" stroke="none">
<path d="M7514 8696 c-6 -24 -46 -42 -86 -38 -12 1 -18 -5 -18 -20 0 -12 -7
-29 -15 -38 -8 -8 -21 -42 -29 -73 -14 -55 -14 -60 4 -90 11 -18 20 -46 20
-63 0 -23 7 -34 26 -45 17 -8 39 -39 58 -79 22 -46 43 -72 69 -89 20 -13 37
-32 37 -42 0 -10 11 -26 25 -35 14 -9 25 -21 25 -28 1 -15 108 -128 143 -149
15 -10 27 -25 27 -33 0 -9 16 -34 35 -56 22 -26 36 -55 40 -82 7 -51 -10 -225
-24 -239 -15 -15 -82 -37 -114 -37 -17 0 -30 -7 -34 -17 -3 -10 -21 -34 -39
-53 -23 -24 -37 -51 -43 -83 -4 -26 -13 -52 -19 -59 -11 -14 17 -58 37 -58 7
0 20 -20 31 -44 17 -40 73 -96 97 -96 5 0 18 -7 29 -15 19 -14 19 -15 -4 -33
-15 -12 -25 -33 -29 -59 -5 -37 -9 -43 -47 -57 -23 -9 -47 -16 -54 -16 -20 0
-91 -60 -112 -96 -31 -48 -26 -90 15 -135 19 -21 32 -44 30 -52 -3 -7 9 -34
27 -61 76 -113 71 -75 52 -372 -7 -111 -7 -111 26 -183 33 -71 37 -75 95 -83
10 -2 22 -13 25 -25 3 -12 23 -34 44 -48 53 -36 92 -28 138 25 53 63 78 97 78
109 0 7 7 22 15 35 8 12 19 55 24 95 5 41 16 80 25 90 9 10 16 25 16 33 0 9 7
21 15 28 8 7 15 25 15 41 0 15 9 36 19 46 10 10 26 41 34 68 9 28 27 77 41
110 14 33 26 70 26 82 0 12 8 37 18 55 10 18 27 56 38 83 28 74 104 194 147
234 31 28 37 39 32 59 -7 29 9 52 34 45 10 -3 22 0 25 6 10 16 52 13 66 -4 7
-8 22 -15 33 -15 13 0 42 -22 72 -54 27 -29 65 -61 83 -70 17 -9 32 -21 32
-26 0 -6 11 -16 25 -22 14 -6 25 -16 25 -22 0 -7 8 -19 18 -28 9 -9 35 -40 56
-68 41 -52 91 -90 119 -90 9 0 18 -13 22 -31 4 -17 13 -33 21 -36 8 -3 21 -18
29 -34 13 -25 13 -40 0 -129 -8 -55 -15 -104 -15 -109 0 -5 -8 -17 -17 -26
-13 -13 -14 -21 -5 -35 7 -12 7 -21 0 -28 -7 -7 -6 -21 3 -46 10 -27 10 -46 2
-76 -10 -39 0 -96 20 -116 4 -4 7 -20 7 -35 0 -20 15 -44 47 -79 56 -61 73
-71 133 -81 41 -7 48 -5 78 24 17 17 32 37 32 44 0 7 6 10 13 7 7 -2 21 10 31
28 10 18 27 42 36 53 10 11 21 31 25 45 4 14 22 48 40 75 18 28 37 64 42 80 8
26 15 30 48 33 26 2 47 12 62 28 12 13 27 24 33 24 5 0 10 9 10 20 0 12 10 24
24 30 16 6 26 20 33 46 9 38 31 57 123 101 19 9 49 26 65 37 17 12 47 30 67
40 21 10 45 30 53 42 9 13 22 24 30 24 7 0 17 10 21 23 3 12 12 29 19 37 15
18 14 82 -2 101 -6 8 -13 25 -15 39 -2 15 -11 26 -23 28 -11 2 -36 16 -55 31
-49 37 -141 64 -191 56 -31 -5 -45 -3 -59 10 -15 13 -23 14 -40 5 -12 -6 -34
-8 -50 -5 -21 5 -45 -1 -84 -19 -45 -21 -69 -26 -137 -26 l-81 0 -75 78 c-42
42 -94 97 -117 121 -22 24 -59 57 -80 72 -42 31 -87 87 -126 158 -21 37 -30
45 -50 43 -27 -3 -42 15 -34 39 2 9 -4 41 -15 70 -32 91 -34 118 -8 140 12 10
29 18 38 19 9 0 22 7 29 15 7 8 18 15 24 15 6 0 50 20 98 45 48 25 95 44 105
43 21 -3 100 18 127 33 10 6 33 13 50 15 17 2 90 24 161 49 72 26 139 49 150
52 11 4 36 19 55 35 23 19 46 28 70 28 19 0 57 11 85 24 27 13 88 41 134 62
117 55 179 128 137 163 -8 6 -11 22 -8 37 4 22 2 25 -19 22 -17 -2 -25 2 -27
17 -3 11 -10 24 -17 30 -7 5 -15 22 -19 36 -4 21 -21 33 -77 58 -80 36 -102
37 -348 11 -103 -10 -118 -10 -153 6 -21 9 -38 20 -38 24 0 5 -13 22 -29 39
-22 23 -38 31 -65 31 -25 0 -38 6 -46 20 -6 11 -27 27 -46 35 -31 13 -40 13
-77 -2 -23 -9 -50 -23 -61 -32 -26 -23 -62 -99 -71 -148 -8 -48 -13 -53 -64
-64 -20 -5 -49 -11 -65 -15 -27 -6 -28 -5 -22 19 5 21 1 28 -29 46 -21 12 -37
16 -41 10 -9 -15 -34 10 -34 35 0 31 -60 58 -136 63 -58 4 -63 2 -84 -24 -12
-15 -41 -37 -63 -48 -41 -20 -42 -21 -47 -82 -3 -34 -10 -67 -17 -74 -7 -7
-38 -14 -70 -16 -190 -11 -209 -10 -228 1 -11 7 -36 18 -56 25 -21 7 -41 22
-47 36 -6 13 -25 34 -41 46 -17 13 -31 31 -31 41 0 10 -14 25 -32 34 -18 9
-45 30 -59 45 -15 16 -36 29 -48 29 -12 0 -21 4 -21 9 0 19 -86 98 -114 105
-16 4 -48 28 -71 53 -39 42 -45 46 -79 40 -29 -5 -42 -1 -65 19 -40 33 -98 34
-107 0z m133 -96 c117 -67 245 -175 487 -412 61 -60 118 -111 129 -114 10 -3
31 -1 45 4 15 6 61 13 103 16 42 3 89 10 103 16 15 5 51 10 79 11 58 0 203 22
213 32 3 3 -21 32 -55 65 -45 44 -61 67 -61 87 0 38 15 61 47 72 47 17 99 -14
188 -111 75 -82 80 -86 121 -86 24 0 68 6 98 14 30 8 91 18 136 22 55 4 83 11
87 21 3 7 -15 35 -40 62 -67 71 -75 132 -22 161 48 26 98 -1 208 -111 54 -54
106 -99 115 -99 9 0 34 5 54 10 20 6 65 15 100 20 35 5 97 14 139 21 123 19
157 9 239 -69 89 -84 93 -108 20 -118 -28 -4 -53 -11 -56 -15 -3 -5 -14 -9
-26 -9 -11 0 -36 -7 -56 -16 -21 -9 -52 -22 -70 -30 -18 -8 -40 -14 -48 -14
-9 0 -28 -6 -42 -14 -31 -15 -39 -18 -252 -88 -85 -28 -168 -56 -185 -64 -16
-7 -42 -16 -58 -20 -15 -3 -30 -10 -33 -15 -3 -5 -15 -9 -27 -9 -12 0 -31 -7
-41 -15 -11 -8 -28 -15 -39 -15 -10 0 -31 -6 -45 -14 -15 -7 -45 -19 -67 -26
-70 -21 -142 -59 -169 -87 -66 -72 -66 -72 -66 -150 0 -63 4 -82 29 -126 62
-111 110 -169 304 -370 111 -115 206 -217 211 -227 16 -34 52 -45 102 -32 24
7 68 12 98 12 29 0 75 7 102 15 27 8 74 15 104 15 30 1 73 7 95 15 61 22 84
18 139 -24 28 -21 70 -48 93 -60 23 -11 44 -25 48 -31 9 -14 -4 -50 -17 -50
-16 0 -194 -87 -259 -126 -30 -18 -89 -51 -130 -73 -41 -22 -75 -46 -77 -54
-2 -8 13 -31 33 -53 35 -39 44 -83 18 -91 -6 -2 -37 19 -68 47 l-57 51 -37
-73 c-51 -99 -99 -185 -128 -231 -13 -21 -28 -48 -33 -60 -6 -12 -14 -29 -19
-37 -5 -8 -19 -36 -30 -62 -17 -38 -24 -45 -41 -41 -11 3 -27 20 -34 37 -8 17
-32 55 -55 85 -44 59 -46 70 -31 152 6 30 17 115 25 189 8 74 20 169 26 210
l12 76 -253 249 c-296 293 -261 261 -332 308 -102 67 -186 43 -278 -80 -24
-32 -46 -60 -50 -63 -12 -10 -50 -78 -50 -90 0 -8 -6 -21 -13 -29 -16 -19
-104 -215 -142 -316 -14 -38 -32 -83 -40 -100 -7 -16 -20 -46 -29 -67 -9 -20
-16 -41 -16 -47 0 -6 -7 -27 -16 -48 -56 -129 -105 -269 -133 -380 -21 -83
-43 -100 -74 -60 -12 16 -40 48 -63 70 -75 77 -90 144 -59 272 8 33 15 83 15
111 0 29 7 65 15 80 29 55 20 73 -74 159 -129 118 -144 151 -90 204 48 48 87
43 145 -19 25 -27 50 -48 54 -45 9 5 27 92 36 170 3 33 10 67 15 76 4 8 11 38
14 65 l7 49 -58 40 c-32 22 -82 64 -111 93 -44 44 -53 59 -53 88 0 49 14 70
53 83 43 15 69 5 129 -49 65 -57 83 -52 79 24 -3 72 15 239 40 366 l18 95 -97
100 c-197 205 -259 272 -337 370 -80 100 -135 196 -135 235 0 57 65 120 124
120 16 0 54 -14 83 -30z"/>
<path d="M4429 7764 c-7 -8 -25 -22 -40 -29 -15 -8 -41 -39 -58 -69 l-31 -53
0 -266 c0 -246 2 -269 21 -314 36 -86 105 -140 163 -129 20 4 51 26 85 60 52
52 54 57 67 136 7 46 18 88 23 93 7 7 23 7 48 1 l38 -9 -3 -52 c-2 -29 1 -54
7 -58 6 -3 11 -15 11 -26 0 -64 137 -158 218 -150 39 4 28 -41 -27 -104 -37
-42 -52 -70 -63 -114 -29 -113 11 -229 91 -267 25 -12 48 -31 52 -42 12 -31
102 -46 219 -37 52 4 118 5 145 4 112 -7 137 -4 151 15 12 17 17 18 40 7 15
-6 63 -14 106 -17 66 -4 85 -2 107 13 39 26 86 24 113 -4 25 -26 56 -29 101
-9 18 8 59 16 92 19 56 4 64 8 112 55 39 38 53 60 58 89 3 21 11 59 17 84 8
31 8 62 2 90 -8 38 -13 44 -32 41 -23 -3 -30 12 -12 23 14 9 -7 35 -26 35 -8
0 -19 11 -24 25 -18 47 -68 43 -133 -11 -33 -28 -92 -41 -111 -25 -10 9 -16 7
-26 -4 -8 -9 -22 -21 -33 -27 -17 -8 -23 -6 -38 13 -15 20 -21 22 -36 11 -34
-24 -45 -25 -79 -8 -44 21 -157 12 -127 -10 17 -12 17 -13 0 -20 -10 -3 -29
-1 -42 6 -14 8 -39 10 -62 7 -47 -8 -104 11 -135 44 -13 13 -42 33 -65 43 -24
10 -43 25 -43 33 0 7 -11 19 -25 25 -14 6 -25 14 -25 17 0 8 67 61 76 61 4 0
28 -13 54 -29 41 -25 56 -29 113 -28 45 2 71 7 83 19 29 25 93 27 118 3 20
-21 160 -33 180 -16 8 7 20 10 26 6 6 -4 20 1 30 10 18 16 21 16 49 -4 l29
-21 56 21 56 21 45 -22 c56 -27 75 -22 142 41 28 27 57 49 63 49 6 0 33 -17
60 -37 28 -21 62 -37 77 -38 20 0 28 -5 27 -17 -1 -13 10 -18 50 -23 64 -7
142 -1 181 14 38 15 105 80 105 101 0 9 5 21 11 27 14 14 3 47 -27 80 -29 32
-30 43 -4 50 11 3 20 9 20 13 0 5 14 22 31 39 53 54 50 104 -16 231 -18 33
-31 46 -52 50 -19 4 -29 12 -31 27 -5 34 -26 44 -99 48 -64 3 -155 -13 -195
-35 -12 -7 -30 -5 -55 4 -54 20 -116 27 -149 17 -32 -10 -106 -23 -86 -14 21
9 13 23 -14 23 -18 0 -28 -6 -31 -20 -3 -12 -19 -28 -36 -36 -28 -15 -31 -14
-58 5 -15 12 -34 21 -41 21 -8 0 -21 9 -31 21 -13 14 -24 18 -40 14 -35 -11
-73 -38 -59 -43 21 -7 13 -31 -12 -38 -24 -6 -109 26 -121 47 -4 6 -14 8 -22
5 -9 -4 -21 1 -29 11 -10 14 -15 16 -25 6 -28 -28 -159 -3 -159 30 0 5 -11 6
-25 3 -18 -5 -25 -2 -25 9 0 8 5 15 11 15 5 0 7 5 4 10 -9 15 -23 12 -46 -11
-18 -18 -26 -20 -40 -11 -13 9 -20 8 -29 -3 -7 -8 -21 -15 -30 -15 -10 0 -32
-13 -48 -30 -36 -35 -41 -36 -87 -10 -43 24 -85 26 -85 5 0 -9 -8 -18 -17 -22
-10 -3 -28 -17 -41 -32 l-22 -26 -18 21 c-9 12 -38 34 -65 49 -26 15 -45 31
-42 36 3 4 0 17 -7 28 -9 15 -9 23 1 35 14 17 3 31 -80 99 l-46 37 -165 0
c-138 0 -168 -3 -179 -16z m389 -96 c16 -16 15 -50 -1 -72 -12 -17 -18 -17
-51 -6 -20 6 -83 12 -139 13 l-102 2 0 -110 0 -110 40 0 c22 0 63 4 91 8 43 6
55 4 75 -12 20 -16 22 -23 13 -38 -10 -16 -24 -18 -119 -14 l-108 3 5 -160 c5
-177 6 -172 -56 -172 -57 0 -64 14 -55 110 4 47 6 190 3 319 -5 190 -3 235 8
242 21 14 382 11 396 -3z m72 -97 c0 -12 -28 -22 -34 -12 -3 5 -3 11 1 15 9 9
33 7 33 -3z m568 -61 l3 -42 43 4 c50 6 76 -5 76 -31 0 -30 -25 -42 -77 -39
l-48 3 -3 -158 c-3 -192 -1 -199 71 -195 50 3 52 2 52 -22 0 -19 -6 -26 -25
-28 -14 -2 -37 -8 -52 -14 -34 -13 -81 3 -115 38 -22 22 -23 30 -23 196 0 95
-4 179 -9 187 -5 8 -16 11 -25 8 -8 -3 -25 2 -37 12 -31 25 -16 45 27 38 21
-4 34 -2 34 5 0 16 82 89 94 85 6 -2 12 -23 14 -47z m928 -41 c28 -31 3 -66
-64 -88 -93 -32 -94 -32 -91 -207 1 -83 -1 -157 -5 -163 -7 -11 -54 -15 -78
-6 -10 4 -13 52 -12 232 0 194 2 228 16 236 24 15 48 1 54 -33 9 -40 27 -38
81 10 52 45 72 49 99 19z m-1446 -6 c3 -3 5 -88 5 -190 0 -171 1 -185 19 -199
40 -28 108 -9 132 37 11 21 13 62 9 188 -6 180 -3 186 65 172 l35 -7 1 -182
c0 -175 1 -183 23 -206 34 -36 25 -70 -18 -74 -26 -3 -40 2 -58 22 -29 31 -42
32 -71 6 -11 -11 -40 -26 -64 -35 -38 -13 -47 -13 -84 1 -78 30 -83 45 -84
268 -1 108 1 200 4 205 6 9 75 4 86 -6z m799 1 c11 -3 12 -35 7 -172 -8 -177
-2 -213 33 -231 23 -13 62 0 99 33 21 19 22 25 22 197 l0 177 38 5 c20 2 43 0
50 -6 9 -7 12 -56 12 -185 0 -174 0 -175 27 -210 31 -41 23 -65 -22 -70 -20
-3 -36 5 -61 29 l-34 32 -23 -25 c-12 -13 -46 -33 -74 -43 l-50 -18 -44 24
c-68 37 -73 57 -77 268 -5 221 -2 226 97 195z m953 6 c25 -7 48 -25 71 -53 34
-44 76 -152 63 -165 -4 -4 -79 -7 -167 -7 l-159 0 0 -33 c0 -41 36 -105 71
-126 35 -20 134 -21 173 -1 15 8 34 15 42 15 18 0 32 -52 15 -58 -6 -2 -18
-10 -26 -18 -7 -8 -29 -17 -47 -20 -18 -3 -45 -10 -60 -16 -21 -8 -43 -6 -92
7 -72 19 -115 54 -147 117 -25 49 -26 170 -2 219 58 121 153 170 265 139z
m-1501 -674 c50 -17 106 -62 124 -99 24 -48 20 -128 -10 -171 -14 -20 -25 -38
-25 -40 0 -2 14 -6 30 -9 28 -6 41 -29 21 -41 -4 -3 -58 -6 -119 -7 -128 -1
-165 11 -215 73 -79 98 -39 229 88 288 47 23 58 23 106 6z m983 -42 c3 -9 6
-28 6 -44 0 -22 5 -29 21 -32 29 -4 46 -47 21 -54 -43 -13 -46 -19 -43 -85 1
-35 4 -72 7 -81 6 -20 -26 -33 -57 -23 -18 6 -20 14 -18 88 2 73 0 82 -20 95
-19 13 -24 13 -41 -3 -17 -15 -24 -16 -46 -7 -33 16 -64 15 -64 0 0 -7 24 -22
52 -33 66 -25 88 -58 69 -104 -15 -34 -41 -45 -105 -44 -30 0 -44 7 -62 29
-13 16 -22 34 -20 39 5 19 45 16 65 -4 25 -25 31 -25 55 -8 17 13 17 14 1 30
-9 9 -25 17 -35 17 -10 0 -32 14 -50 30 -26 25 -31 35 -26 58 4 15 18 37 33
50 29 26 64 23 115 -8 29 -17 30 -17 54 7 16 15 24 35 24 57 0 18 3 36 7 39
12 13 51 7 57 -9z m-746 -171 c-2 -65 1 -86 12 -93 21 -13 25 -13 51 9 20 16
22 26 21 94 -2 65 0 78 16 86 38 20 47 -1 48 -122 l1 -114 -73 -7 c-45 -4 -81
-3 -93 4 -26 13 -40 60 -43 142 -2 53 1 71 16 87 33 37 47 11 44 -86z m367 81
c41 -27 70 -113 44 -130 -6 -3 -9 -17 -6 -30 12 -65 -120 -102 -177 -49 -49
45 -58 102 -26 164 32 64 106 84 165 45z"/>
<path d="M6572 7397 c-25 -14 -75 -94 -67 -107 5 -9 197 -1 208 9 12 12 -12
65 -38 84 -33 24 -75 30 -103 14z"/>
<path d="M5114 6733 c-12 -2 -34 -18 -50 -34 -25 -26 -29 -38 -29 -87 0 -64
14 -86 74 -117 31 -15 37 -16 75 -1 47 18 86 68 86 110 0 37 -27 91 -54 109
-25 17 -72 26 -102 20z"/>
<path d="M5693 6613 c-7 -2 -13 -11 -13 -19 0 -17 85 -20 96 -3 13 22 -46 38
-83 22z"/>
<path d="M5670 6520 c0 -5 13 -16 30 -25 26 -14 32 -14 64 2 19 9 33 20 30 25
-7 11 -124 10 -124 -2z"/>
<path d="M5359 6197 c-18 -12 -36 -33 -39 -47 -4 -16 -12 -24 -23 -22 -26 4
-23 -74 6 -125 44 -80 68 -111 91 -117 22 -5 48 -49 50 -83 1 -7 11 -21 24
-33 12 -11 22 -29 22 -39 0 -10 28 -47 62 -82 33 -35 76 -86 93 -114 33 -50
126 -145 143 -145 5 0 20 -16 33 -35 18 -27 29 -34 45 -30 24 5 39 -16 22 -33
-7 -7 -4 -16 9 -29 27 -27 109 -73 130 -73 10 0 53 -37 97 -81 78 -81 79 -81
122 -76 29 3 44 0 48 -9 3 -7 15 -14 28 -16 13 -2 27 -12 32 -24 11 -25 59
-54 90 -54 13 0 35 -10 50 -21 22 -17 37 -20 71 -16 31 3 48 0 56 -9 6 -8 18
-14 25 -14 8 0 19 -9 26 -20 8 -12 36 -27 67 -36 45 -14 63 -14 111 -4 55 12
60 11 102 -14 61 -35 139 -36 208 -1 l49 25 52 -20 c63 -25 119 -20 198 17 51
25 55 25 87 9 42 -20 113 -21 157 -2 18 7 49 30 70 51 26 25 42 34 50 27 18
-14 109 -11 132 4 11 8 30 14 42 14 15 0 28 10 38 29 20 39 26 42 98 48 72 5
135 31 183 73 19 16 40 30 45 30 6 0 9 7 5 15 -4 12 1 14 32 9 30 -5 41 -2 56
15 11 12 27 21 37 21 10 0 23 9 29 20 6 11 17 20 25 20 8 0 22 11 31 25 9 14
23 25 31 25 22 0 63 31 63 47 0 12 3 13 14 3 12 -9 24 -5 60 22 25 18 45 39
46 45 0 7 12 16 28 19 15 4 45 24 68 44 23 21 50 43 62 49 11 6 30 31 42 56
12 24 26 43 32 42 23 -5 18 24 -9 49 -26 24 -26 27 -11 38 20 15 14 26 -16 26
-11 0 -33 12 -49 28 -27 25 -29 26 -41 9 -8 -10 -20 -15 -30 -11 -14 6 -21 -5
-17 -28 0 -5 -8 -8 -19 -8 -13 0 -20 -7 -20 -19 0 -25 -17 -36 -33 -23 -9 8
-20 5 -37 -8 -14 -11 -35 -20 -47 -20 -12 0 -30 -11 -41 -25 -11 -14 -25 -25
-31 -25 -16 0 -55 -58 -56 -82 0 -26 -23 -36 -31 -14 -5 14 -9 14 -33 1 -15
-7 -33 -21 -40 -29 -8 -9 -25 -16 -40 -16 -30 0 -53 -13 -49 -26 4 -16 -61
-79 -85 -81 -82 -7 -118 -17 -128 -35 -7 -13 -17 -18 -30 -15 -15 4 -23 -1
-29 -18 -11 -30 -72 -59 -105 -51 -25 6 -35 -8 -12 -18 6 -3 -15 -5 -48 -4
-68 1 -124 -25 -143 -67 -13 -29 -20 -30 -46 -10 -38 29 -149 9 -201 -35 -11
-9 -35 -26 -53 -36 -28 -16 -36 -17 -53 -5 -32 19 -108 40 -114 31 -10 -15
-91 -50 -118 -50 -14 0 -41 6 -59 14 -60 25 -98 34 -98 25 0 -13 -34 -11 -47
2 -9 9 -20 6 -43 -11 -20 -14 -35 -19 -39 -13 -3 6 -17 14 -31 18 -14 4 -34
18 -46 30 -27 29 -129 53 -156 36 -25 -16 -42 -14 -62 8 -10 11 -28 22 -41 25
-14 4 -22 13 -21 23 1 12 -7 19 -24 21 -14 2 -32 10 -41 18 -13 11 -22 12 -49
3 -29 -11 -35 -10 -49 8 -9 11 -30 26 -46 35 -17 8 -29 19 -28 25 3 16 -55 63
-77 63 -10 0 -26 10 -35 23 -11 16 -26 22 -53 22 -33 0 -37 3 -37 27 -1 27
-39 78 -58 78 -19 0 -107 64 -107 77 0 31 -31 69 -75 93 -33 18 -45 30 -41 42
3 13 -4 20 -27 26 -31 8 -65 51 -66 84 -1 9 -14 32 -31 50 -16 18 -30 41 -30
51 0 14 -5 17 -20 12 -26 -8 -44 3 -31 19 8 9 1 22 -23 46 -20 18 -40 52 -48
77 -9 31 -20 48 -35 54 -13 5 -23 14 -23 21 -1 22 -37 58 -74 73 -44 18 -37
19 -77 -8z m77 -90 c9 -18 30 -48 45 -68 45 -57 36 -89 -25 -89 -16 0 -33 18
-65 65 -47 72 -50 103 -12 122 30 14 36 11 57 -30z m144 -220 c8 -7 26 -29 40
-49 14 -21 28 -38 32 -38 17 0 28 -39 18 -64 -7 -20 -16 -26 -40 -26 -16 0
-30 4 -30 9 0 5 -6 16 -12 23 -7 7 -30 36 -51 63 l-38 50 26 22 c30 26 34 27
55 10z m3369 -242 c31 -33 22 -64 -27 -92 l-39 -22 -22 25 c-11 13 -21 28 -21
34 0 10 69 80 79 80 3 0 17 -12 30 -25z m-3156 -19 c15 -19 40 -48 57 -65 36
-35 35 -46 -4 -75 l-27 -21 -69 75 -68 75 21 23 c30 32 60 28 90 -12z m3003
-110 c10 -16 12 -31 7 -40 -8 -14 -78 -66 -90 -66 -3 0 -11 -7 -17 -14 -6 -8
-23 -18 -38 -21 -24 -6 -28 -3 -36 27 -10 35 0 58 23 58 8 0 15 3 17 8 7 17
84 72 100 72 10 0 25 -11 34 -24z m-2816 -84 c14 -16 44 -41 68 -57 50 -33 56
-65 17 -91 -29 -19 -28 -20 -118 65 l-57 55 27 28 c15 15 29 28 33 28 3 0 17
-13 30 -28z m2573 -96 c11 -33 16 -28 -88 -96 l-60 -39 -22 21 c-40 38 -30 64
36 98 33 16 63 34 66 40 4 6 18 10 33 8 18 -2 28 -12 35 -32z m-2326 -96 c18
-16 39 -30 46 -30 7 0 23 -9 36 -19 31 -24 23 -68 -14 -77 -36 -9 -165 78
-165 111 0 24 22 44 49 45 7 0 29 -13 48 -30z m2062 -39 c12 -16 21 -31 21
-34 0 -8 -160 -87 -176 -87 -7 0 -20 13 -29 30 -14 28 -14 30 7 44 13 8 39 22
58 31 19 9 46 23 60 30 34 20 36 19 59 -14z m-1841 -89 c9 -5 32 -16 50 -25
19 -9 42 -17 52 -17 25 0 42 -24 38 -56 -5 -45 -29 -51 -90 -23 -29 14 -66 30
-83 35 -36 11 -42 34 -19 68 18 28 25 30 52 18z m1583 -41 c14 -34 -7 -51
-102 -81 -70 -23 -72 -23 -85 -5 -27 36 -6 85 36 85 10 0 37 8 60 19 50 22 78
17 91 -18z m-1241 -76 c68 -11 82 -21 78 -58 -3 -30 -6 -32 -43 -35 -22 -1
-67 6 -100 16 -59 18 -60 19 -57 52 4 50 18 63 51 46 14 -8 46 -17 71 -21z
m948 13 c15 -15 16 -64 1 -73 -14 -9 -138 -35 -165 -35 -33 0 -48 56 -21 79
12 9 118 36 158 40 8 0 20 -4 27 -11z m-673 -55 c89 -7 95 -9 95 -48 l0 -35
-105 0 -105 0 0 32 c0 38 27 72 49 62 9 -4 39 -9 66 -11z m378 3 c20 -16 22
-49 4 -64 -7 -6 -54 -14 -104 -18 l-92 -7 -7 27 c-10 41 12 57 85 60 34 2 65
6 68 10 10 9 26 7 46 -8z"/>
</g>
</svg>
